<svg width="11" height="10" viewBox="0 0 11 10" fill="none" xmlns="http://www.w3.org/2000/svg">
<g clip-path="url(#clip0_1221_11328)">
<path fill-rule="evenodd" clip-rule="evenodd" d="M10.087 2.1818C10.3115 2.40534 10.3115 2.76777 10.087 2.99131L4.33876 8.71538C4.11427 8.93892 3.75031 8.93892 3.52583 8.71538L0.912981 6.11353C0.688498 5.88999 0.688498 5.52756 0.912981 5.30402C1.13746 5.08049 1.50142 5.08049 1.72591 5.30402L3.93229 7.50112L9.27409 2.1818C9.49858 1.95827 9.86254 1.95827 10.087 2.1818Z" fill="white"/>
<path fill-rule="evenodd" clip-rule="evenodd" d="M10.2596 2.00847C9.9397 1.68989 9.42141 1.68989 9.10149 2.00847H10.2596ZM9.91441 2.35514C9.78537 2.22664 9.57574 2.22664 9.4467 2.35514L4.1049 7.67446C4.00945 7.7695 3.85513 7.7695 3.75969 7.67446L1.5533 5.47736C1.42426 5.34887 1.21463 5.34887 1.08559 5.47736C0.95712 5.60529 0.95712 5.81227 1.08559 5.9402L3.69843 8.54205C3.82747 8.67054 4.03711 8.67054 4.16615 8.54205L9.91441 2.81797C10.0429 2.69005 10.0429 2.48307 9.91441 2.35514ZM10.2596 2.00847C10.5801 2.32762 10.5801 2.84549 10.2596 3.16465L4.51136 8.88872C4.19143 9.2073 3.67315 9.2073 3.35322 8.88872L0.740375 6.28687C0.419875 5.96772 0.419875 5.44984 0.740375 5.13069C1.0603 4.81211 1.57859 4.81211 1.89851 5.13069L3.93229 7.15591L9.10149 2.00847" fill="white"/>
</g>
<defs>
<clipPath id="clip0_1221_11328">
<rect width="10" height="10" fill="white" transform="translate(0.5)"/>
</clipPath>
</defs>
</svg>
