<svg width="214" height="80" viewBox="0 0 214 80" fill="none" xmlns="http://www.w3.org/2000/svg">
<g clip-path="url(#clip0_1252_10144)">
<path d="M140.555 28.457H136.855V41.9523H140.555V28.457Z" fill="#66B821"/>
<path d="M114.868 35.2048C114.867 33.2595 114.191 31.3748 112.957 29.8722C111.723 28.3696 110.006 27.342 108.1 26.9648V43.4448C110.006 43.0684 111.724 42.0411 112.958 40.5383C114.192 39.0355 114.867 37.1504 114.868 35.2048Z" fill="#66B821"/>
<path d="M108.095 17.5195V24.3587C110.671 24.7737 113.014 26.0933 114.706 28.081C116.397 30.0687 117.326 32.5946 117.326 35.2058C117.326 37.817 116.397 40.3428 114.706 42.3305C113.014 44.3182 110.671 45.6378 108.095 46.0528V52.4617H140.564V44.5421H135.561C135.218 44.5421 134.889 44.4056 134.646 44.1627C134.403 43.9197 134.267 43.5902 134.267 43.2466V27.1649C134.271 26.8237 134.408 26.4977 134.651 26.2577C134.893 26.0177 135.22 25.8831 135.561 25.8831H140.555V17.5195H108.095Z" fill="#66B821"/>
<path d="M76.797 28.457H73.0974V41.9523H76.797V28.457Z" fill="#007A32"/>
<path d="M98.7888 35.2048C98.79 33.2595 99.4653 31.3748 100.7 29.8722C101.934 28.3696 103.651 27.342 105.557 26.9648V43.4448C103.65 43.0684 101.933 42.0411 100.699 40.5383C99.4642 39.0355 98.7892 37.1504 98.7888 35.2048Z" fill="#007A32"/>
<path d="M105.562 17.5195V24.3587C102.986 24.7737 100.643 26.0933 98.9513 28.081C97.2597 30.0687 96.3307 32.5946 96.3307 35.2058C96.3307 37.817 97.2597 40.3428 98.9513 42.3305C100.643 44.3182 102.986 45.6378 105.562 46.0528V52.4617H73.093V44.5421H78.0868C78.4301 44.5421 78.7592 44.4056 79.0019 44.1627C79.2446 43.9197 79.381 43.5902 79.381 43.2466V27.1649C79.3774 26.8253 79.2407 26.5006 79.0004 26.2609C78.76 26.0212 78.4352 25.8855 78.096 25.8831H73.1022V17.5195H105.562Z" fill="#007A32"/>
<path d="M106.828 0C91.623 0.0686666 78.0913 5.82293 73.1021 14.3651H76.7605C77.888 12.9107 79.2098 11.6184 80.6888 10.5243L86.8944 14.3651H91.8288L98.4415 4.41755L105.246 14.3651H106.828V0ZM88.742 12.5523L82.9799 8.98617C84.8122 7.88404 86.7409 6.95091 88.742 6.19831V12.5523ZM91.28 10.6342V5.34226C92.6519 4.92111 94.0696 4.55031 95.533 4.23902L91.28 10.6342ZM100.797 3.39213C102.406 3.2136 104.043 3.10373 105.69 3.06711V10.5472L100.797 3.39213Z" fill="#007A32"/>
<path d="M106.828 14.3834H108.415L115.22 4.43586L121.833 14.3834H126.767L132.973 10.5426C134.452 11.6367 135.773 12.929 136.901 14.3834H140.559C135.566 5.82293 122.034 0.0686666 106.828 0V14.3834ZM124.915 6.19831C126.916 6.94798 128.844 7.87803 130.677 8.97701L124.915 12.5431V6.19831ZM118.128 4.22528C119.592 4.53657 121.019 4.90737 122.381 5.32853V10.6342L118.128 4.22528ZM107.976 10.5472V3.06711C109.623 3.10831 111.264 3.21817 112.869 3.39213L107.976 10.5472Z" fill="#66B821"/>
<path d="M109.046 73.8162C109.046 74.5849 108.819 75.3363 108.392 75.9755C107.965 76.6146 107.359 77.1127 106.65 77.4069C105.94 77.7011 105.159 77.778 104.406 77.6281C103.653 77.4781 102.961 77.1079 102.418 76.5644C101.875 76.0209 101.506 75.3284 101.356 74.5744C101.206 73.8205 101.283 73.0391 101.577 72.3289C101.871 71.6187 102.368 71.0117 103.007 70.5847C103.645 70.1576 104.396 69.9297 105.164 69.9297C106.194 69.9297 107.181 70.3392 107.909 71.068C108.637 71.7969 109.046 72.7854 109.046 73.8162Z" fill="#66B821"/>
<path d="M9.18427 77.6995V79.4437H6.60505C6.11116 79.4437 5.89623 79.2468 5.89623 78.8715V77.727C3.00147 77.4295 0.5 75.4976 0.5 72.4809C0.5 69.4641 3.01976 67.5415 5.89623 67.2485V65.7516C6.67616 65.5625 7.47636 65.4703 8.2788 65.4769C8.88702 65.4769 9.19341 65.692 9.19341 66.1864V67.1936C12.0699 67.4911 14.5714 69.4412 14.5714 72.4397C14.5714 75.4381 12.0607 77.3837 9.18427 77.6995ZM5.95568 75.1772V69.7113C5.32506 69.7806 4.74501 70.0894 4.33495 70.5739C3.9249 71.0585 3.71606 71.682 3.75146 72.3161C3.73321 72.9742 3.94262 73.6185 4.34428 74.1398C4.74593 74.6612 5.31517 75.0276 5.95568 75.1772ZM9.10653 69.7754V75.2367C9.74127 75.1729 10.327 74.8665 10.7418 74.3813C11.1566 73.8962 11.3686 73.2696 11.3336 72.632C11.3473 71.9715 11.1333 71.3265 10.7277 70.8054C10.3221 70.2844 9.74961 69.919 9.10653 69.7708V69.7754Z" fill="white"/>
<path d="M15.8244 79.4419C15.4128 79.4419 15.0973 79.1672 15.2345 78.7506L19.8624 65.9924C20.6119 65.6802 21.4149 65.517 22.2267 65.5117C23.0727 65.5117 23.3699 65.7269 23.626 66.4273L28.3317 79.4419H25.5879C25.0345 79.4419 24.8196 79.2862 24.7007 78.9292L24.033 76.8371H19.3091L18.4813 79.4419H15.8244ZM21.655 69.4257L20.1002 74.2965H23.2328L21.655 69.4257Z" fill="white"/>
<path d="M38.6899 65.6484C39.0649 65.6484 39.2616 65.8636 39.2616 66.358V68.331H33.3166V70.8534C34.189 70.5031 35.1204 70.3228 36.0604 70.3223C38.8042 70.3223 40.8484 71.9017 40.8484 74.6621C40.8484 77.8391 38.6442 79.455 34.94 79.455H34.3181C31.405 79.455 30.0422 77.9764 30.0422 74.9184V65.6484H38.6899ZM35.0315 76.7907C36.4674 76.7907 37.5329 76.2597 37.5329 74.8406C37.5329 73.4215 36.7235 72.9088 35.1869 72.9088C34.5457 72.9056 33.9076 72.9982 33.2937 73.1835V74.7216C33.2937 76.1819 33.7098 76.7907 34.5559 76.7907H35.0315Z" fill="white"/>
<path d="M43.9718 79.4426C43.4779 79.4426 43.2629 79.2458 43.2629 78.8704V65.6406H48.1287C51.6362 65.6406 53.8039 67.5724 53.8039 70.8272C53.8039 73.9447 51.5173 75.8353 48.4671 75.8353C47.8219 75.8278 47.18 75.7417 46.5556 75.579V79.4426H43.9718ZM46.551 73.0337C47.0036 73.1164 47.4629 73.1562 47.9229 73.1527C49.4595 73.1527 50.4838 72.3654 50.4838 70.7677C50.4838 69.1701 49.5372 68.3415 47.9824 68.3415H46.5464L46.551 73.0337Z" fill="white"/>
<path d="M56.1039 65.7687C56.882 65.5699 57.6835 65.4775 58.4864 65.4941C59.0947 65.4941 59.3736 65.7092 59.3736 66.1853V73.876L64.0793 65.9702C64.1643 65.8136 64.2943 65.6862 64.4525 65.6045C64.6107 65.5229 64.7898 65.4908 64.9665 65.5124C65.7947 65.6152 66.5824 65.9306 67.253 66.4279V79.4425H64.6921C64.1982 79.4425 63.9833 79.264 63.9833 78.8886V71.2483L59.2684 79.1587C59.1808 79.3129 59.0502 79.4382 58.8927 79.5194C58.7352 79.6007 58.5575 79.6344 58.3813 79.6165C57.5524 79.5161 56.7641 79.2005 56.0947 78.7009L56.1039 65.7687Z" fill="white"/>
<path d="M77.4556 72.0405C78.204 73.6359 79.1655 75.122 80.3138 76.4581C80.4691 76.6436 80.6618 76.7942 80.8794 76.8999C81.0969 77.0056 81.3343 77.0641 81.576 77.0715H81.8915C82.0389 77.4825 82.1117 77.9166 82.1065 78.3533C82.1065 78.985 81.2193 79.6946 80.076 79.6946C78.9327 79.6946 78.0456 79.0811 77.259 78.0374C76.3289 76.7644 75.5608 75.3804 74.9725 73.9174C74.538 74.215 74.0075 74.5492 73.6005 74.7872V79.4428H71.0213C70.5274 79.4428 70.3125 79.2459 70.3125 78.8706V65.7507C71.0987 65.5618 71.9049 65.4696 72.7134 65.476C73.3033 65.476 73.6005 65.6912 73.6005 66.1856V71.3127C75.7113 69.6918 77.5169 67.7077 78.9327 65.4531C80.762 66.007 81.297 66.5197 81.297 67.2293C81.2851 67.5046 81.1964 67.771 81.0409 67.9984C80.0535 69.5169 78.8451 70.8793 77.4556 72.0405Z" fill="white"/>
<path d="M83.3869 79.4439C82.9708 79.4439 82.6598 79.1692 82.797 78.7527L87.425 65.9944C88.1735 65.6775 88.9766 65.5096 89.7892 65.5C90.6353 65.5 90.9325 65.7152 91.1886 66.4156L95.8943 79.4439H93.1505C92.5971 79.4439 92.3822 79.2883 92.2633 78.9312L91.5956 76.8391H86.8716L86.0439 79.4439H83.3869ZM89.2176 69.4277L87.6628 74.2985H90.7953L89.2176 69.4277Z" fill="white"/>
<path d="M123.456 77.7016V79.4457H120.877C120.383 79.4457 120.168 79.2488 120.168 78.8735V77.729C117.273 77.4315 114.772 75.4997 114.772 72.4829C114.772 69.4661 117.273 67.5343 120.168 67.2368V65.7398C120.948 65.5508 121.748 65.4586 122.551 65.4652C123.159 65.4652 123.465 65.6803 123.465 66.1747V67.1818C126.342 67.4794 128.843 69.4295 128.843 72.428C128.843 75.4264 126.333 77.3857 123.456 77.7016ZM120.228 75.1792V69.7133C119.597 69.7827 119.017 70.0914 118.607 70.576C118.197 71.0605 117.988 71.684 118.023 72.3181C118.005 72.9762 118.215 73.6205 118.616 74.1418C119.018 74.6632 119.587 75.0296 120.228 75.1792ZM123.379 69.7774V75.2387C124.013 75.1749 124.599 74.8685 125.014 74.3833C125.429 73.8982 125.641 73.2716 125.606 72.634C125.619 71.9735 125.405 71.3285 125 70.8075C124.594 70.2864 124.022 69.921 123.379 69.7729V69.7774Z" fill="white"/>
<path d="M133.444 79.4431C132.676 79.4431 132.301 79.0677 132.301 78.6557C132.318 78.4666 132.393 78.2875 132.516 78.143C133.224 77.1954 133.974 76.0922 134.702 74.9386L130.526 66.813C130.803 66.4557 131.147 66.1567 131.539 65.9336C131.932 65.7104 132.365 65.5674 132.813 65.5129C133.031 65.4821 133.252 65.5308 133.437 65.6502C133.622 65.7696 133.757 65.9516 133.819 66.163L136.481 71.7616C137.557 69.8155 138.441 67.7686 139.119 65.6503H141.067C141.836 65.6503 142.229 65.9844 142.229 66.4788C142.222 66.6072 142.196 66.7337 142.151 66.8542C140.674 70.7407 137.994 75.845 135.118 79.4568L133.444 79.4431Z" fill="white"/>
<path d="M148.178 79.4452C147.684 79.4452 147.469 79.2666 147.469 78.8913V68.3349H144.218C143.806 68.3349 143.569 68.0969 143.569 67.5659C143.584 66.9229 143.656 66.2826 143.784 65.6523H154.068C154.443 65.6523 154.64 65.8675 154.64 66.3619V68.3349H150.73V79.4452H148.178Z" fill="white"/>
<path d="M165.451 65.6523C165.826 65.6523 166.022 65.8675 166.022 66.3619V68.3349H160.077V70.8573C160.95 70.507 161.881 70.3267 162.821 70.3263C165.565 70.3263 167.609 71.9056 167.609 74.666C167.609 77.843 165.405 79.4589 161.701 79.4589H161.07C158.157 79.4589 156.794 77.9803 156.794 74.9223V65.6523H165.451ZM161.824 76.7947C163.26 76.7947 164.326 76.2636 164.326 74.8445C164.326 73.4254 163.516 72.9127 161.98 72.9127C161.339 72.9095 160.7 73.0021 160.087 73.1874V74.7255C160.087 76.1858 160.503 76.7947 161.349 76.7947H161.824Z" fill="white"/>
<path d="M176.266 79.6915C172.484 79.6915 169.452 77.1279 169.452 72.5547C169.452 67.9815 172.484 65.418 176.266 65.418C180.048 65.418 183.062 67.9815 183.062 72.5547C183.062 77.1279 180.03 79.6915 176.266 79.6915ZM179.774 72.7104C179.774 69.8493 178.136 68.096 176.147 68.096C174.318 68.096 172.74 69.4189 172.74 72.3945C172.74 75.2556 174.377 77.0089 176.367 77.0089C178.168 77.0089 179.774 75.6905 179.774 72.7104Z" fill="white"/>
<path d="M197.375 65.6523C197.869 65.6523 198.084 65.8492 198.084 66.2246V79.4452H195.505C195.011 79.4452 194.796 79.2666 194.796 78.8913V68.3349H191.567C191.5 70.4925 191.322 72.6453 191.037 74.785C190.543 78.2733 189.208 79.697 186.999 79.697C185.627 79.697 184.182 78.9462 184.182 78.2183C184.191 77.6953 184.341 77.1844 184.616 76.7397C185.073 76.923 185.56 77.0163 186.052 77.0144C186.921 77.0144 187.424 76.5017 187.767 74.373C188.172 71.4921 188.357 68.5844 188.321 65.6752L197.375 65.6523Z" fill="white"/>
<path d="M200.65 79.4458C200.234 79.4458 199.923 79.1711 200.06 78.7545L204.692 66.01C205.441 65.6932 206.244 65.5252 207.057 65.5156C207.903 65.5156 208.2 65.7308 208.456 66.4312L213.162 79.4458H210.418C209.865 79.4458 209.65 79.2901 209.531 78.9331L208.863 76.841H204.139L203.321 79.4458H200.65ZM206.481 69.4296L204.926 74.3004H208.058L206.481 69.4296Z" fill="white"/>
</g>
<defs>
<clipPath id="clip0_1252_10144">
<rect width="213" height="80" fill="white" transform="translate(0.5)"/>
</clipPath>
</defs>
</svg>
