<svg width="300" height="112" viewBox="0 0 300 112" fill="none" xmlns="http://www.w3.org/2000/svg">
<g clip-path="url(#clip0_1221_11836)">
<path d="M197.26 39.8398H192.05V58.7332H197.26V39.8398Z" fill="#66B821"/>
<path d="M161.081 49.286C161.079 46.5625 160.128 43.924 158.39 41.8203C156.652 39.7166 154.234 38.2781 151.549 37.75V60.822C154.234 60.295 156.653 58.8568 158.391 56.7529C160.13 54.649 161.081 52.0098 161.081 49.286Z" fill="#66B821"/>
<path d="M151.542 24.5273V34.1022C155.17 34.6832 158.471 36.5306 160.853 39.3134C163.236 42.0962 164.544 45.6324 164.544 49.2881C164.544 52.9437 163.236 56.4799 160.853 59.2627C158.471 62.0455 155.17 63.8929 151.542 64.4739V73.4463H197.273V62.359H190.227C189.743 62.359 189.28 62.1679 188.938 61.8277C188.596 61.4876 188.404 61.0263 188.404 60.5453V38.0309C188.409 37.5532 188.603 37.0968 188.945 36.7608C189.286 36.4248 189.747 36.2363 190.227 36.2364H197.26V24.5273H151.542Z" fill="#66B821"/>
<path d="M107.461 39.8398H102.25V58.7332H107.461V39.8398Z" fill="#007A32"/>
<path d="M138.435 49.286C138.437 46.5625 139.388 43.924 141.126 41.8203C142.865 39.7166 145.283 38.2781 147.968 37.75V60.822C145.282 60.295 142.863 58.8568 141.125 56.7529C139.386 54.649 138.436 52.0098 138.435 49.286Z" fill="#007A32"/>
<path d="M147.974 24.5273V34.1022C144.347 34.6832 141.046 36.5306 138.664 39.3134C136.281 42.0962 134.973 45.6324 134.973 49.2881C134.973 52.9437 136.281 56.4799 138.664 59.2627C141.046 62.0455 144.347 63.8929 147.974 64.4739V73.4463H102.244V62.359H109.277C109.761 62.359 110.224 62.1679 110.566 61.8277C110.908 61.4876 111.1 61.0263 111.1 60.5453V38.0309C111.095 37.5554 110.902 37.1009 110.564 36.7653C110.225 36.4296 109.768 36.2397 109.29 36.2364H102.257V24.5273H147.974Z" fill="#007A32"/>
<path d="M149.758 0C128.342 0.0961333 109.283 8.1521 102.256 20.1111H107.409C108.997 18.075 110.859 16.2657 112.942 14.734L121.682 20.1111H128.632L137.946 6.18457L147.53 20.1111H149.758V0ZM124.284 17.5732L116.169 12.5806C118.75 11.0377 121.466 9.73128 124.284 8.67763V17.5732ZM127.859 14.8878V7.47917C129.791 6.88955 131.788 6.37043 133.849 5.93463L127.859 14.8878ZM141.263 4.74898C143.53 4.49904 145.836 4.34522 148.155 4.29395V14.7661L141.263 4.74898Z" fill="#007A32"/>
<path d="M149.758 20.1367H151.993L161.577 6.21021L170.891 20.1367H177.841L186.581 14.7597C188.664 16.2913 190.526 18.1006 192.114 20.1367H197.267C190.233 8.1521 171.174 0.0961332 149.758 0V20.1367ZM175.232 8.67763C178.05 9.72717 180.767 11.0292 183.348 12.5678L175.232 17.5603V8.67763ZM165.674 5.9154C167.735 6.3512 169.745 6.87032 171.664 7.45994V14.8878L165.674 5.9154ZM151.375 14.7661V4.29395C153.694 4.35163 156.006 4.50544 158.267 4.74898L151.375 14.7661Z" fill="#66B821"/>
<path d="M152.882 103.343C152.882 104.42 152.562 105.472 151.961 106.366C151.36 107.261 150.506 107.959 149.507 108.37C148.507 108.782 147.408 108.89 146.347 108.68C145.286 108.47 144.312 107.952 143.547 107.191C142.782 106.43 142.262 105.46 142.051 104.405C141.84 103.35 141.948 102.255 142.362 101.261C142.776 100.267 143.477 99.4172 144.376 98.8193C145.275 98.2215 146.332 97.9023 147.414 97.9023C148.864 97.9023 150.255 98.4756 151.281 99.496C152.306 100.516 152.882 101.9 152.882 103.343Z" fill="#66B821"/>
<path d="M12.2314 108.776V111.218H8.59867C7.90305 111.218 7.60032 110.942 7.60032 110.417V108.815C3.5232 108.398 0 105.694 0 101.47C0 97.2467 3.54896 94.5549 7.60032 94.1448V92.0491C8.69881 91.7844 9.82586 91.6553 10.9561 91.6645C11.8127 91.6645 12.2442 91.9657 12.2442 92.6579V94.0679C16.2956 94.4844 19.8188 97.2146 19.8188 101.412C19.8188 105.61 16.2827 108.334 12.2314 108.776ZM7.68405 105.245V97.5927C6.79586 97.6898 5.97888 98.122 5.40134 98.8004C4.8238 99.4788 4.52967 100.352 4.57952 101.239C4.55381 102.161 4.84876 103.063 5.41448 103.793C5.98019 104.523 6.78193 105.036 7.68405 105.245ZM12.1219 97.6825V105.328C13.0159 105.239 13.8408 104.81 14.4251 104.131C15.0093 103.452 15.3079 102.574 15.2586 101.682C15.2779 100.757 14.9765 99.854 14.4052 99.1245C13.834 98.395 13.0276 97.8835 12.1219 97.6761V97.6825Z" fill="black"/>
<path d="M21.5838 111.217C21.0041 111.217 20.5596 110.833 20.7529 110.249L27.2711 92.3878C28.3268 91.9508 29.4577 91.7222 30.6011 91.7148C31.7927 91.7148 32.2113 92.0161 32.572 92.9966L39.1998 111.217H35.3352C34.5558 111.217 34.2531 110.999 34.0856 110.499L33.1453 107.57H26.4918L25.3259 111.217H21.5838ZM29.796 97.1944L27.606 104.013H32.0181L29.796 97.1944Z" fill="black"/>
<path d="M53.7882 91.9102C54.3164 91.9102 54.5934 92.2114 54.5934 92.9035V95.6658H46.2201V99.1971C47.449 98.7066 48.7607 98.4543 50.0847 98.4536C53.9493 98.4536 56.8284 100.665 56.8284 104.529C56.8284 108.977 53.7238 111.239 48.5067 111.239H47.6307C43.5278 111.239 41.6084 109.169 41.6084 104.888V91.9102H53.7882ZM48.6355 107.509C50.6579 107.509 52.1587 106.766 52.1587 104.779C52.1587 102.792 51.0186 102.075 48.8545 102.075C47.9513 102.07 47.0526 102.2 46.1879 102.459V104.613C46.1879 106.657 46.774 107.509 47.9656 107.509H48.6355Z" fill="black"/>
<path d="M61.2278 111.217C60.5322 111.217 60.2295 110.942 60.2295 110.416V91.8945H67.0827C72.0229 91.8945 75.0759 94.5991 75.0759 99.1558C75.0759 103.52 71.8554 106.167 67.5593 106.167C66.6506 106.157 65.7465 106.036 64.867 105.808V111.217H61.2278ZM64.8605 102.245C65.498 102.361 66.1449 102.416 66.7928 102.412C68.957 102.412 70.3997 101.309 70.3997 99.0725C70.3997 96.8358 69.0665 95.6758 66.8766 95.6758H64.8541L64.8605 102.245Z" fill="black"/>
<path d="M78.3151 92.0747C79.4111 91.7963 80.54 91.667 81.6709 91.6901C82.5275 91.6901 82.9204 91.9914 82.9204 92.6579V103.425L89.5481 92.3567C89.6678 92.1374 89.8509 91.9591 90.0737 91.8448C90.2966 91.7305 90.5488 91.6855 90.7977 91.7158C91.9642 91.8598 93.0736 92.3013 94.0182 92.9976V111.218H90.4112C89.7156 111.218 89.4129 110.968 89.4129 110.443V99.7461L82.7723 110.821C82.6488 111.036 82.4649 111.212 82.2431 111.326C82.0213 111.439 81.771 111.487 81.5227 111.462C80.3553 111.321 79.2451 110.879 78.3022 110.18L78.3151 92.0747Z" fill="black"/>
<path d="M108.388 100.855C109.442 103.089 110.797 105.169 112.414 107.04C112.633 107.3 112.904 107.51 113.211 107.658C113.517 107.806 113.851 107.888 114.192 107.899H114.636C114.844 108.474 114.946 109.082 114.939 109.693C114.939 110.577 113.689 111.571 112.079 111.571C110.469 111.571 109.219 110.712 108.111 109.251C106.801 107.469 105.72 105.531 104.891 103.483C104.279 103.899 103.532 104.367 102.959 104.701V111.218H99.326C98.6304 111.218 98.3276 110.943 98.3276 110.417V92.0494C99.4349 91.785 100.57 91.6559 101.709 91.6649C102.54 91.6649 102.959 91.9661 102.959 92.6582V99.8362C105.932 97.567 108.475 94.7892 110.469 91.6328C113.045 92.4083 113.799 93.1261 113.799 94.1195C113.782 94.5048 113.657 94.8778 113.438 95.1961C112.047 97.3221 110.345 99.2295 108.388 100.855Z" fill="black"/>
<path d="M116.742 111.217C116.156 111.217 115.718 110.832 115.912 110.249L122.43 92.3875C123.484 91.9439 124.615 91.7088 125.76 91.6953C126.951 91.6953 127.37 91.9965 127.731 92.9771L134.358 111.217H130.494C129.714 111.217 129.412 110.999 129.244 110.499L128.304 107.57H121.65L120.485 111.217H116.742ZM124.955 97.1941L122.765 104.013H127.177L124.955 97.1941Z" fill="black"/>
<path d="M173.178 108.776V111.218H169.545C168.85 111.218 168.547 110.942 168.547 110.417V108.814C164.47 108.398 160.947 105.693 160.947 101.47C160.947 97.2464 164.47 94.5418 168.547 94.1252V92.0295C169.645 91.7649 170.772 91.6357 171.903 91.645C172.759 91.645 173.191 91.9462 173.191 92.6384V94.0483C177.242 94.4649 180.765 97.1951 180.765 101.393C180.765 105.591 177.229 108.334 173.178 108.776ZM168.631 105.245V97.5924C167.742 97.6895 166.925 98.1217 166.348 98.8001C165.77 99.4785 165.476 100.351 165.526 101.239C165.5 102.16 165.795 103.062 166.361 103.792C166.927 104.522 167.728 105.035 168.631 105.245ZM173.068 97.6822V105.328C173.962 105.239 174.787 104.81 175.372 104.13C175.956 103.451 176.254 102.574 176.205 101.681C176.224 100.757 175.923 99.8537 175.352 99.1242C174.781 98.3947 173.974 97.8832 173.068 97.6757V97.6822Z" fill="black"/>
<path d="M187.245 111.218C186.163 111.218 185.635 110.692 185.635 110.116C185.659 109.851 185.764 109.6 185.938 109.398C186.936 108.071 187.992 106.527 189.016 104.912L183.136 93.5359C183.525 93.0356 184.01 92.6171 184.563 92.3047C185.115 91.9922 185.725 91.7921 186.356 91.7158C186.663 91.6726 186.975 91.7408 187.235 91.908C187.495 92.0751 187.686 92.33 187.773 92.6258L191.522 100.464C193.038 97.7394 194.283 94.8737 195.238 91.908H197.982C199.064 91.908 199.618 92.3759 199.618 93.068C199.608 93.2477 199.571 93.4249 199.509 93.5936C197.428 99.0347 193.654 106.181 189.602 111.237L187.245 111.218Z" fill="black"/>
<path d="M207.998 111.22C207.302 111.22 206.999 110.97 206.999 110.445V95.6658H202.42C201.84 95.6658 201.505 95.3325 201.505 94.5891C201.527 93.689 201.628 92.7925 201.808 91.9102H216.294C216.822 91.9102 217.099 92.2114 217.099 92.9035V95.6658H211.592V111.22H207.998Z" fill="black"/>
<path d="M232.325 91.9102C232.853 91.9102 233.13 92.2114 233.13 92.9035V95.6658H224.757V99.1971C225.986 98.7066 227.297 98.4543 228.621 98.4536C232.486 98.4536 235.365 100.665 235.365 104.529C235.365 108.977 232.261 111.239 227.043 111.239H226.155C222.052 111.239 220.132 109.169 220.132 104.888V91.9102H232.325ZM227.217 107.509C229.24 107.509 230.741 106.766 230.741 104.779C230.741 102.792 229.601 102.075 227.436 102.075C226.533 102.07 225.634 102.2 224.77 102.459V104.613C224.77 106.657 225.356 107.509 226.548 107.509H227.217Z" fill="black"/>
<path d="M247.558 111.565C242.231 111.565 237.961 107.976 237.961 101.573C237.961 95.171 242.231 91.582 247.558 91.582C252.885 91.582 257.129 95.171 257.129 101.573C257.129 107.976 252.859 111.565 247.558 111.565ZM252.498 101.791C252.498 97.7858 250.192 95.3312 247.39 95.3312C244.814 95.3312 242.592 97.1834 242.592 101.349C242.592 105.355 244.898 107.809 247.7 107.809C250.237 107.809 252.498 105.964 252.498 101.791Z" fill="black"/>
<path d="M277.289 91.9102C277.985 91.9102 278.288 92.1857 278.288 92.7113V111.22H274.655C273.959 111.22 273.656 110.97 273.656 110.445V95.6658H269.109C269.014 98.6864 268.764 101.7 268.362 104.696C267.666 109.579 265.786 111.573 262.675 111.573C260.742 111.573 258.707 110.522 258.707 109.503C258.72 108.77 258.931 108.055 259.319 107.432C259.962 107.689 260.649 107.82 261.341 107.817C262.565 107.817 263.274 107.099 263.757 104.119C264.327 100.086 264.588 96.015 264.536 91.9422L277.289 91.9102Z" fill="black"/>
<path d="M281.901 111.217C281.315 111.217 280.877 110.833 281.07 110.249L287.595 92.407C288.649 91.9634 289.78 91.7283 290.925 91.7148C292.117 91.7148 292.535 92.0161 292.896 92.9966L299.524 111.217H295.659C294.88 111.217 294.577 110.999 294.41 110.499L293.469 107.57H286.816L285.663 111.217H281.901ZM290.114 97.1944L287.924 104.013H292.336L290.114 97.1944Z" fill="black"/>
</g>
<defs>
<clipPath id="clip0_1221_11836">
<rect width="300" height="112" fill="white"/>
</clipPath>
</defs>
</svg>
