<svg width="36" height="36" viewBox="0 0 36 36" fill="none" xmlns="http://www.w3.org/2000/svg">
<g clip-path="url(#clip0_1496_1974)">
<path d="M35.9539 19.2843C35.9838 18.86 36 18.4319 36 18C36 8.05887 27.9411 0 18 0C8.05887 0 0 8.05887 0 18C0 26.2806 5.59195 33.2542 13.2053 35.3532L35.9539 19.2843Z" fill="#C8CACE"/>
<path d="M35.954 19.2826L22.1479 5.47656L8.37402 30.52L13.2055 35.3515C14.7321 35.7724 16.3397 35.9983 18.0001 35.9983C27.5094 35.9983 35.2953 28.6243 35.954 19.2826Z" fill="#91949E"/>
<path d="M19.57 23.4766L17.9798 5.47656H8.37402V21.9113L19.57 23.4766Z" fill="white"/>
<path d="M27.6259 21.9113V10.9548L23.7128 9.38959L22.1476 5.47656H17.9795L18.0045 23.4766L27.6259 21.9113Z" fill="#E8E6E6"/>
<path d="M22.1475 10.9548V5.47656L27.6257 10.9548H22.1475Z" fill="white"/>
<path d="M27.6262 21.9141H8.37402V30.5228H27.6262V21.9141Z" fill="#FC0F1A"/>
<path d="M14.4052 24.3555C15.3577 24.3555 15.9057 24.8237 15.9057 25.6538C15.9057 26.5265 15.3576 27.032 14.4052 27.032H13.7294V28.0803H12.7822V24.3555H14.4052ZM13.7294 26.287H14.3573C14.7724 26.287 15.0118 26.0795 15.0118 25.6857C15.0118 25.2972 14.7723 25.1004 14.3573 25.1004H13.7294V26.287Z" fill="white"/>
<path d="M18.136 24.3555C19.3066 24.3555 20.1154 25.111 20.1154 26.2178C20.1154 27.3194 19.2959 28.0803 18.0986 28.0803H16.5342V24.3555H18.136ZM17.4814 27.3246H18.1572C18.7372 27.3246 19.1522 26.8776 19.1522 26.2232C19.1522 25.5634 18.7159 25.111 18.1146 25.111H17.4814V27.3246H17.4814Z" fill="white"/>
<path d="M21.6962 25.1004V25.9624H23.367V26.7074H21.6962V28.0803H20.749V24.3555H23.5107V25.1004H21.6962V25.1004Z" fill="white"/>
</g>
<defs>
<clipPath id="clip0_1496_1974">
<rect width="36" height="36" fill="white"/>
</clipPath>
</defs>
</svg>
