<svg width="12" height="12" viewBox="0 0 12 12" fill="none" xmlns="http://www.w3.org/2000/svg">
<path fill-rule="evenodd" clip-rule="evenodd" d="M11.5044 2.61777C11.7738 2.88602 11.7738 3.32093 11.5044 3.58918L4.60651 10.4581C4.33713 10.7263 3.90037 10.7263 3.63099 10.4581L0.495577 7.33585C0.226197 7.0676 0.226197 6.63269 0.495577 6.36444C0.764958 6.09619 1.20171 6.09619 1.47109 6.36444L4.11875 9.00096L10.5289 2.61777C10.7983 2.34953 11.235 2.34953 11.5044 2.61777Z" fill="#66B821"/>
<path fill-rule="evenodd" clip-rule="evenodd" d="M11.7116 2.40977C11.3276 2.02747 10.7057 2.02747 10.3218 2.40977H11.7116ZM11.2973 2.82578C11.1424 2.67158 10.8909 2.67158 10.736 2.82578L4.32588 9.20896C4.21134 9.32301 4.02616 9.32301 3.91162 9.20896L1.26396 6.57244C1.10912 6.41825 0.857551 6.41825 0.702705 6.57244C0.548544 6.72595 0.548544 6.97433 0.702705 7.12784L3.83812 10.2501C3.99297 10.4043 4.24453 10.4043 4.39938 10.2501L11.2973 3.38118C11.4515 3.22767 11.4515 2.97929 11.2973 2.82578ZM11.7116 2.40977C12.0962 2.79275 12.0962 3.4142 11.7115 3.79718L4.81363 10.6661C4.42972 11.0484 3.80778 11.0484 3.42387 10.6661L0.28845 7.54385C-0.09615 7.16087 -0.09615 6.53942 0.28845 6.15644C0.672365 5.77414 1.2943 5.77414 1.67822 6.15644L4.11875 8.5867L10.3218 2.40977" fill="#66B821"/>
</svg>
