<svg width="0" height="0" style="position:absolute"><symbol fill="none" viewBox="0 0 20 20" id="arrow-black" xmlns="http://www.w3.org/2000/svg"><path d="M4.667 10h10.666M10 4.664l5.333 5.333L10 15.331" stroke="#000" stroke-width="2" stroke-linecap="round" stroke-linejoin="round"/></symbol><symbol fill="none" viewBox="0 0 16 15" id="arrow-gray" xmlns="http://www.w3.org/2000/svg"><path fill-rule="evenodd" clip-rule="evenodd" d="M11.475.275a.938.938 0 010 1.325l-5.9 5.9 5.9 5.9a.937.937 0 01-1.325 1.325L3.587 8.163a.937.937 0 010-1.326L10.15.275a.937.937 0 011.325 0z" fill="#91949E"/></symbol><symbol viewBox="0 0 14 14" id="arrow-green" xmlns="http://www.w3.org/2000/svg"><path fill-rule="evenodd" clip-rule="evenodd" d="M.706 7.295c0-.455.369-.823.823-.823h11.53a.824.824 0 010 1.647H1.529a.824.824 0 01-.823-.824z"/><path fill-rule="evenodd" clip-rule="evenodd" d="M6.712.948a.824.824 0 011.164 0l5.765 5.765a.824.824 0 010 1.165l-5.765 5.764a.824.824 0 01-1.164-1.164l5.182-5.183-5.182-5.182a.824.824 0 010-1.165z"/></symbol><symbol viewBox="0 0 24 24" id="mail" xmlns="http://www.w3.org/2000/svg"><path d="M1.2 1.203h21.6a1.2 1.2 0 011.2 1.2v19.2a1.2 1.2 0 01-1.2 1.2H1.2a1.2 1.2 0 01-1.2-1.2v-19.2a1.2 1.2 0 011.2-1.2zm10.872 10.42L4.378 5.089 2.824 6.918l9.264 7.865 9.097-7.871-1.57-1.816-7.543 6.527z"/></symbol><symbol fill="none" viewBox="0 0 16 16" id="map" xmlns="http://www.w3.org/2000/svg"><path d="M12.785 11.313L8.1 15.998l-4.685-4.685a6.627 6.627 0 119.371 0zM8.1 8.099a1.473 1.473 0 100-2.945 1.473 1.473 0 000 2.945z" fill="#66B821"/></symbol><symbol fill="none" viewBox="0 0 24 24" id="map-pin" xmlns="http://www.w3.org/2000/svg"><path d="M19.178 16.969l-7.029 7.029-7.029-7.03a9.94 9.94 0 1114.058 0zm-7.029-4.82a2.209 2.209 0 100-4.417 2.209 2.209 0 000 4.417z" fill="#007A32"/></symbol><symbol fill="none" viewBox="0 0 24 24" id="phone" xmlns="http://www.w3.org/2000/svg"><g clip-path="url(#gclip0_1112_26003)"><path d="M24 17.893v4.715a1.333 1.333 0 01-1.24 1.33c-.583.04-1.059.062-1.427.062C9.551 24 0 14.45 0 2.667c0-.368.02-.844.061-1.427A1.333 1.333 0 011.392 0h4.715a.667.667 0 01.664.6c.03.307.058.55.085.736.265 1.85.808 3.648 1.61 5.335a.608.608 0 01-.195.756L5.393 9.483a17.396 17.396 0 009.126 9.125l2.053-2.872a.616.616 0 01.764-.199 18.532 18.532 0 005.333 1.607c.186.027.43.056.734.085a.667.667 0 01.597.664z" fill="#007A32"/></g><defs><clipPath id="gclip0_1112_26003"><path fill="#fff" d="M0 0h24v24H0z"/></clipPath></defs></symbol><symbol viewBox="0 0 17 16" id="tel" xmlns="http://www.w3.org/2000/svg"><g clip-path="url(#hclip0_1252_10178)"><path d="M16.5 11.929v3.143a.889.889 0 01-.827.887c-.388.027-.705.041-.95.041C6.866 16 .5 9.633.5 1.778c0-.246.013-.563.04-.951A.889.889 0 011.429 0h3.143a.444.444 0 01.443.4c.02.204.039.367.057.49a12.357 12.357 0 001.073 3.557c.085.178.03.39-.13.504l-1.918 1.37a11.597 11.597 0 006.083 6.084l1.369-1.914a.41.41 0 01.51-.133c1.124.534 2.322.895 3.555 1.071.123.018.286.038.489.057a.445.445 0 01.398.443z"/></g><defs><clipPath id="hclip0_1252_10178"><path transform="translate(.5)" d="M0 0h16v16H0z"/></clipPath></defs></symbol><symbol viewBox="0 0 18 18" id="tg" xmlns="http://www.w3.org/2000/svg"><g clip-path="url(#iclip0_1221_8381)"><path d="M17.722 1.788c-.22-.269-.55-.417-.927-.417-.206 0-.424.043-.648.129L.912 7.316c-.809.309-.918.772-.91 1.02.006.25.141.705.966.968l.015.004 2.137.612 10.406-5.317a.527.527 0 01.624.83v.001l-5.786 6.148-.165.669 2.066 1.664 2.864 2.305a.22.22 0 00.007.006c.315.245.66.374.996.374.656 0 1.18-.486 1.331-1.238L17.96 3.035c.1-.495.016-.938-.237-1.247z"/><path d="M7.373 11.195a.525.525 0 01.127-.235l3.797-4.034-7.045 3.6 1.6 4.574c.09.26.226.483.394.657l1.126-4.562zM7.228 16.178c.38-.003.754-.163 1.081-.465l1.17-1.077-1.56-1.257-.691 2.8z"/></g><g clip-path="url(#iclip1_1221_8381)"><path d="M17.722 1.788c-.22-.269-.55-.417-.927-.417-.206 0-.424.043-.648.129L.912 7.316c-.809.309-.918.772-.91 1.02.006.25.141.705.966.968l.015.004 2.137.612 10.406-5.317a.527.527 0 01.624.83v.001l-5.786 6.148-.165.669 2.066 1.664 2.864 2.305a.22.22 0 00.007.006c.315.245.66.374.996.374.656 0 1.18-.486 1.331-1.238L17.96 3.035c.1-.495.016-.938-.237-1.247z"/><path d="M7.373 11.195a.525.525 0 01.127-.235l3.797-4.034-7.045 3.6 1.6 4.574c.09.26.226.483.394.657l1.126-4.562zM7.228 16.178c.38-.003.754-.163 1.081-.465l1.17-1.077-1.56-1.257-.691 2.8z"/></g><defs><clipPath id="iclip0_1221_8381"><path d="M0 0h18v18H0z"/></clipPath><clipPath id="iclip1_1221_8381"><path d="M0 0h18v18H0z"/></clipPath></defs></symbol><symbol viewBox="0 0 18 18" id="vk" xmlns="http://www.w3.org/2000/svg"><path fill-rule="evenodd" clip-rule="evenodd" d="M15.492 10.477c.597.583 1.227 1.131 1.762 1.773.237.285.46.58.632.91.243.471.023.989-.399 1.017l-2.622-.001c-.676.056-1.216-.217-1.67-.679-.363-.37-.699-.763-1.048-1.146a2.488 2.488 0 00-.472-.42c-.358-.231-.668-.16-.873.213-.208.38-.256.8-.276 1.223-.028.618-.215.78-.835.808-1.326.063-2.584-.138-3.752-.806-1.03-.59-1.83-1.422-2.525-2.364C2.06 9.17 1.023 7.155.09 5.082c-.21-.467-.056-.718.459-.726.855-.017 1.71-.016 2.567-.002.348.005.578.205.712.533a15.914 15.914 0 001.74 3.225c.19.267.382.534.657.722.304.208.536.14.68-.2.09-.214.13-.445.15-.676.068-.791.077-1.581-.042-2.37-.073-.492-.35-.81-.841-.904-.251-.047-.214-.14-.092-.284.21-.246.409-.4.804-.4h2.963c.467.092.57.302.634.771l.003 3.292c-.005.182.09.721.418.841.262.086.435-.124.592-.29.71-.753 1.216-1.643 1.668-2.564.201-.406.374-.826.541-1.247.124-.312.319-.465.67-.459l2.852.003c.085 0 .17.001.252.015.481.082.613.289.464.758-.234.736-.689 1.35-1.134 1.967-.475.658-.984 1.293-1.456 1.956-.433.604-.399.909.14 1.434z"/></symbol></svg>