<svg width="13" height="14" viewBox="0 0 13 14" fill="none" xmlns="http://www.w3.org/2000/svg">
<path fill-rule="evenodd" clip-rule="evenodd" d="M12.728 0.771972C13.0907 1.1346 13.0907 1.72254 12.728 2.08517L1.58517 13.228C1.22254 13.5907 0.634602 13.5907 0.271972 13.228C-0.0906574 12.8654 -0.0906574 12.2775 0.271972 11.9148L11.4148 0.771972C11.7775 0.409343 12.3654 0.409343 12.728 0.771972Z" fill="#F35C19"/>
<path fill-rule="evenodd" clip-rule="evenodd" d="M0.271972 0.771972C0.634602 0.409343 1.22254 0.409343 1.58517 0.771972L12.728 11.9148C13.0907 12.2775 13.0907 12.8654 12.728 13.228C12.3654 13.5907 11.7775 13.5907 11.4148 13.228L0.271972 2.08517C-0.0906574 1.72254 -0.0906574 1.1346 0.271972 0.771972Z" fill="#F35C19"/>
</svg>
