<svg width="18" height="18" viewBox="0 0 18 18" fill="none" xmlns="http://www.w3.org/2000/svg">
<g clip-path="url(#clip0_1384_8211)">
<path d="M18 17V13.5C18 12.95 17.55 12.5 17 12.5C15.75 12.5 14.55 12.3 13.43 11.93C13.08 11.82 12.69 11.9 12.41 12.18L10.21 14.38C7.38 12.94 5.07 10.62 3.62 7.79L5.82 5.59C6.01 5.39 6.11 5.14 6.11 4.88C6.11 4.78 6.1 4.67 6.06 4.57C5.69 3.45 5.49 2.24 5.49 1C5.49 0.45 5.04 0 4.49 0H1C0.450001 0 0 0.45 0 1C0 10.39 7.61 18 17 18C17.55 18 18 17.55 18 17Z" fill="white"/>
</g>
<defs>
<clipPath id="clip0_1384_8211">
<rect width="18" height="18" fill="white"/>
</clipPath>
</defs>
</svg>
