<svg width="144" height="38" viewBox="0 0 144 38" fill="none" xmlns="http://www.w3.org/2000/svg">
<g clip-path="url(#clip0_1221_8329)">
<path d="M67.1489 17.0594V18.5141H64.9364C64.5162 18.5141 64.3294 18.3532 64.3294 18.0452V17.1073C61.844 16.8506 59.689 15.2623 59.689 12.7841C59.689 10.3059 61.844 8.72102 64.3151 8.47799V7.24572C64.9839 7.09018 65.6703 7.0143 66.3587 7.01981C66.8831 7.01981 67.1345 7.1978 67.1345 7.60171V8.42664C69.5984 8.66968 71.7426 10.2716 71.7426 12.7327C71.7426 15.1938 69.6128 16.8026 67.1489 17.0594ZM64.3797 14.985V10.501C63.8381 10.5596 63.3406 10.8136 62.9893 11.2108C62.6379 11.608 62.4595 12.1182 62.4905 12.6369C62.4734 13.1762 62.652 13.7046 62.9962 14.1329C63.3403 14.5613 63.829 14.8635 64.3797 14.9885V14.985ZM67.0806 10.5352V15.0193C67.6255 14.9647 68.1275 14.7125 68.4825 14.3149C68.8376 13.9172 69.0185 13.4046 68.9878 12.8833C68.9963 12.3458 68.8118 11.8217 68.465 11.3977C68.1181 10.9738 67.6297 10.6755 67.0806 10.5523V10.5352Z" fill="white"/>
<path d="M73.1722 18.5123C72.8131 18.5123 72.5473 18.2864 72.6658 17.9441L76.6166 7.46642C77.2577 7.20686 77.9459 7.06962 78.6423 7.0625C79.3607 7.0625 79.6193 7.24049 79.842 7.8224L83.8898 18.5123H81.5265C81.0524 18.5123 80.8692 18.3822 80.7686 18.0913L80.194 16.3798H76.1605L75.4422 18.5157L73.1722 18.5123ZM78.1683 10.2972L76.8357 14.2952H79.5187L78.1683 10.2972Z" fill="white"/>
<path d="M93.0916 7.16797C93.4112 7.16797 93.58 7.34596 93.58 7.74987V9.36893H88.4978V11.4432C89.2486 11.1535 90.0511 11.0047 90.8611 11.0051C93.2245 11.0051 94.9628 12.299 94.9628 14.5684C94.9628 17.1767 93.0736 18.5048 89.8986 18.5048H89.3598C86.8456 18.5048 85.6963 17.2897 85.6963 14.7806V7.16797H93.0916ZM89.9848 16.3175C91.2167 16.3175 92.1398 15.8794 92.1398 14.7156C92.1398 13.5518 91.4466 13.1274 90.132 13.1274C89.5833 13.1252 89.0373 13.2013 88.5122 13.3533V14.6163C88.5122 15.8144 88.8713 16.3278 89.5897 16.3278L89.9848 16.3175Z" fill="white"/>
<path d="M97.9693 18.5151C97.5491 18.5151 97.3623 18.3542 97.3623 18.0462V7.16797H101.532C104.538 7.16797 106.392 8.75623 106.392 11.4261C106.392 13.9831 104.434 15.5337 101.816 15.5337C101.263 15.5269 100.713 15.4556 100.178 15.3215V18.5151H97.9693ZM100.182 13.2369C100.572 13.3045 100.967 13.3366 101.363 13.3327C102.682 13.3327 103.558 12.6858 103.558 11.3748C103.558 10.0638 102.746 9.38263 101.403 9.38263H100.171L100.182 13.2369Z" fill="white"/>
<path d="M108.705 7.26392C109.372 7.10047 110.059 7.02446 110.748 7.038C111.273 7.038 111.51 7.216 111.51 7.60621V13.9216L115.543 7.41795C115.613 7.28727 115.723 7.17995 115.858 7.11025C115.994 7.04054 116.148 7.01177 116.301 7.02773C117.005 7.11811 117.673 7.37981 118.241 7.78763V18.5152H116.046C115.626 18.5152 115.439 18.368 115.439 18.0634V11.7651L111.406 18.2687C111.332 18.395 111.22 18.4977 111.086 18.5641C110.951 18.6304 110.798 18.6575 110.648 18.6418C109.944 18.5576 109.276 18.3005 108.708 17.8956L108.705 7.26392Z" fill="white"/>
<path d="M127.338 12.4149C127.978 13.7241 128.801 14.9447 129.784 16.0432C129.917 16.1948 130.081 16.318 130.267 16.4047C130.452 16.4914 130.655 16.5397 130.862 16.5464H131.131C131.259 16.8843 131.323 17.2414 131.318 17.6006C131.318 18.1175 130.557 18.7028 129.58 18.7028C128.603 18.7028 127.841 18.1997 127.166 17.3337C126.37 16.2922 125.713 15.1608 125.209 13.9655C124.849 14.2085 124.383 14.4823 124.045 14.6774V18.5146H121.825C121.405 18.5146 121.218 18.3537 121.218 18.0456V7.2496C121.892 7.09442 122.583 7.01854 123.276 7.02368C123.783 7.02368 124.034 7.20168 124.034 7.60559V11.8158C125.833 10.4867 127.37 8.86422 128.574 7.02368C130.162 7.47894 130.6 7.89654 130.6 8.48187C130.589 8.70708 130.513 8.92511 130.381 9.11169C129.543 10.35 128.518 11.4632 127.338 12.4149Z" fill="white"/>
<path d="M132.755 18.5123C132.396 18.5123 132.13 18.2864 132.248 17.9441L136.199 7.46642C136.84 7.20686 137.528 7.06962 138.225 7.0625C138.943 7.0625 139.205 7.24049 139.424 7.8224L143.472 18.5123H141.109C140.635 18.5123 140.452 18.3822 140.348 18.0913L139.773 16.3798H135.743L135.025 18.5157L132.755 18.5123ZM137.751 10.2972L136.418 14.2952H139.101L137.751 10.2972Z" fill="white"/>
<path d="M67.1489 33.5218V34.9629H64.9364C64.5162 34.9629 64.3294 34.802 64.3294 34.4939V33.556C61.844 33.3096 59.689 31.7247 59.689 29.2465C59.689 26.7683 61.844 25.1835 64.3151 24.9404V23.691C64.9839 23.5355 65.6703 23.4596 66.3587 23.4651C66.8831 23.4651 67.1345 23.6431 67.1345 24.047V24.872C69.5984 25.115 71.7426 26.7169 71.7426 29.1781C71.7426 31.6392 69.6128 33.2753 67.1489 33.5218ZM64.3797 31.4475V26.9634C63.8377 27.0212 63.3397 27.275 62.9882 27.6724C62.6367 28.0698 62.4586 28.5805 62.4905 29.0993C62.4743 29.638 62.6533 30.1656 62.9973 30.5933C63.3414 31.0209 63.8296 31.3226 64.3797 31.4475ZM67.0806 26.9976V31.4817C67.6255 31.4272 68.1275 31.1749 68.4825 30.7773C68.8376 30.3797 69.0185 29.8671 68.9878 29.3458C68.9971 28.8077 68.813 28.2827 68.4661 27.8581C68.1192 27.4334 67.6303 27.1347 67.0806 27.0113V26.9976Z" fill="white"/>
<path d="M75.7044 34.964C75.0472 34.964 74.7239 34.6559 74.7239 34.317C74.74 34.1619 74.8051 34.0151 74.9107 33.896C75.5177 33.119 76.1606 32.2119 76.7855 31.2569L73.1938 24.5855C73.8511 23.8736 74.6126 23.5176 75.1693 23.5176C75.356 23.4954 75.5449 23.5368 75.7026 23.6345C75.8604 23.7322 75.9768 23.8799 76.0313 24.0516L78.312 28.652C79.2355 27.0522 79.9933 25.3704 80.5748 23.6305H82.2449C82.9022 23.6305 83.2398 23.9044 83.2398 24.3151C83.2332 24.4205 83.2102 24.5243 83.1715 24.6232C81.9073 27.8134 79.6086 32.0065 77.1447 34.9708L75.7044 34.964Z" fill="white"/>
<path d="M88.3291 34.9623C87.9089 34.9623 87.7221 34.8151 87.7221 34.5105V25.8299H84.9385C84.5794 25.8299 84.3818 25.6348 84.3818 25.2C84.3959 24.6721 84.4583 24.1464 84.5686 23.6289H93.379C93.6987 23.6289 93.8675 23.8069 93.8675 24.2108V25.8299H90.5272V34.9623H88.3291Z" fill="white"/>
<path d="M103.148 23.625C103.468 23.625 103.637 23.803 103.637 24.2069V25.826H98.5437V27.9003C99.2945 27.6105 100.097 27.4618 100.907 27.4621C103.27 27.4621 105.009 28.756 105.009 31.0254C105.009 33.6337 103.119 34.9619 99.9444 34.9619H99.4057C96.8915 34.9619 95.7422 33.7467 95.7422 31.2377V23.625H103.148ZM100.041 32.7746C101.273 32.7746 102.196 32.3364 102.196 31.1726C102.196 30.0088 101.503 29.5844 100.189 29.5844C99.6399 29.5821 99.0939 29.6582 98.5688 29.8103V31.0734C98.5688 32.2714 98.928 32.7849 99.6463 32.7849L100.041 32.7746Z" fill="white"/>
<path d="M112.401 35.1538C109.168 35.1538 106.561 33.0487 106.561 29.2937C106.561 25.5387 109.161 23.4336 112.401 23.4336C115.64 23.4336 118.234 25.5387 118.234 29.2937C118.234 33.0487 115.622 35.1538 112.401 35.1538ZM115.407 29.4204C115.407 27.0722 114.006 25.6311 112.3 25.6311C110.748 25.6311 109.38 26.7162 109.38 29.1602C109.38 31.5084 110.781 32.9494 112.487 32.9494C114.038 32.9529 115.403 31.8678 115.403 29.4238L115.407 29.4204Z" fill="white"/>
<path d="M130.478 23.625C130.898 23.625 131.085 23.7859 131.085 24.0939V34.9584H128.872C128.452 34.9584 128.265 34.8113 128.265 34.5066V25.8294H125.496C125.444 27.6004 125.297 29.3677 125.058 31.1247C124.638 33.9897 123.47 35.157 121.599 35.157C120.417 35.157 119.186 34.5408 119.186 33.9418C119.189 33.5135 119.313 33.0938 119.545 32.7267C119.936 32.8779 120.354 32.9547 120.777 32.9526C121.52 32.9526 121.958 32.5316 122.246 30.7824C122.594 28.4115 122.752 26.0188 122.72 23.625H130.478Z" fill="white"/>
<path d="M133.297 34.9615C132.938 34.9615 132.672 34.7356 132.791 34.3933L136.742 23.9156C137.383 23.6561 138.071 23.5189 138.767 23.5117C139.486 23.5117 139.748 23.6897 139.967 24.2716L144 34.9581H141.651C141.177 34.9581 140.994 34.828 140.89 34.5371L140.315 32.8256H136.282L135.564 34.9615H133.297ZM138.293 26.7464L136.961 30.7444H139.644L138.293 26.7464Z" fill="white"/>
<path d="M50.9156 20.5938H48.1221V30.3555H50.9156V20.5938Z" fill="#66B821"/>
<path d="M31.5266 25.4755C31.526 24.0753 31.0172 22.7184 30.0865 21.635C29.1558 20.5516 27.8606 19.8083 26.4204 19.5312V31.439C27.864 31.1613 29.1619 30.4152 30.0929 29.3278C31.024 28.2404 31.5307 26.879 31.5266 25.4755Z" fill="#66B821"/>
<path d="M26.4204 12.6797V17.6267C28.3875 17.9146 30.1814 18.8641 31.4774 20.3034C32.7734 21.7427 33.4859 23.5767 33.4859 25.4733C33.4859 27.3699 32.7734 29.2039 31.4774 30.6431C30.1814 32.0824 28.3875 33.032 26.4204 33.3198V37.9539H50.9188V32.2259H47.1501C47.0216 32.2254 46.8944 32.2009 46.7759 32.1536C46.6573 32.1064 46.5497 32.0373 46.4591 31.9504C46.3686 31.8635 46.2969 31.7605 46.2481 31.6472C46.1993 31.5339 46.1745 31.4125 46.1749 31.29V19.6566C46.1745 19.5341 46.1993 19.4127 46.2481 19.2994C46.2969 19.1861 46.3686 19.083 46.4591 18.9961C46.5497 18.9092 46.6573 18.8402 46.7759 18.7929C46.8944 18.7457 47.0216 18.7211 47.1501 18.7207H50.9188V12.6797H26.4204Z" fill="#66B821"/>
<path d="M2.7989 20.5938H0.00537109V30.3555H2.7989V20.5938Z" fill="#007A32"/>
<path d="M19.3941 25.4755C19.3949 24.0748 19.9042 22.7176 20.8355 21.6341C21.7669 20.5506 23.0629 19.8077 24.5037 19.5312V31.439C23.0595 31.162 21.7608 30.4161 20.8291 29.3287C19.8973 28.2412 19.3902 26.8794 19.3941 25.4755Z" fill="#007A32"/>
<path d="M24.5038 12.6797V17.6267C22.5367 17.9146 20.7428 18.8641 19.4468 20.3034C18.1508 21.7427 17.4383 23.5767 17.4383 25.4733C17.4383 27.3699 18.1508 29.2039 19.4468 30.6431C20.7428 32.0824 22.5367 33.032 24.5038 33.3198V37.9539H0.00537109V32.2259H3.7741C3.90261 32.2254 4.02977 32.2009 4.14833 32.1536C4.26689 32.1064 4.37452 32.0373 4.46507 31.9504C4.55563 31.8635 4.62734 31.7605 4.6761 31.6472C4.72487 31.5339 4.74974 31.4125 4.7493 31.29V19.6566C4.74974 19.5341 4.72487 19.4127 4.6761 19.2994C4.62734 19.1861 4.55563 19.083 4.46507 18.9961C4.37452 18.9092 4.26689 18.8402 4.14833 18.7929C4.02977 18.7457 3.90261 18.7211 3.7741 18.7207H0.00537109V12.6797H24.5038Z" fill="#007A32"/>
<path d="M25.4621 0.0117188C13.9866 0.0601243 3.7741 4.223 0.00537109 10.4028H2.76843C3.61784 9.35166 4.61478 8.41676 5.73127 7.6243L10.421 10.4157H14.1457L19.1368 3.2194L24.2735 10.4157H25.4722L25.4621 0.0117188ZM11.8093 9.08938L7.46156 6.50775C8.8438 5.71415 10.2991 5.0423 11.8093 4.50053V9.08938ZM13.7191 7.70175V3.87448C14.7349 3.56792 15.8252 3.30007 16.9291 3.07741L13.7191 7.70175ZM20.9179 2.46426C22.1301 2.33518 23.3695 2.25774 24.6122 2.22869V7.64043L20.9179 2.46426Z" fill="#007A32"/>
<path d="M25.4619 10.4145H26.6741L31.8109 3.21821L36.802 10.4145H40.5267L45.2096 7.63603C46.3261 8.42849 47.3231 9.36339 48.1725 10.4145H50.9355C47.1668 4.23473 36.9543 0.0718431 25.4788 0.0234375L25.4619 10.4145ZM39.1147 4.50257C40.6249 5.04433 42.0802 5.71619 43.4624 6.50979L39.1147 9.09142V4.50257ZM33.9915 3.07299C35.0954 3.29889 36.1721 3.56673 37.2015 3.87007V7.70057L33.9915 3.07299ZM26.3355 7.63925V2.22751C27.5782 2.25655 28.8175 2.334 30.0298 2.46308L26.3355 7.63925Z" fill="#66B821"/>
</g>
<defs>
<clipPath id="clip0_1221_8329">
<rect width="144" height="38" fill="white"/>
</clipPath>
</defs>
</svg>
