<svg width="14" height="14" viewBox="0 0 14 14" xmlns="http://www.w3.org/2000/svg">
<path fill-rule="evenodd" clip-rule="evenodd" d="M0.705811 7.29527C0.705811 6.84044 1.07452 6.47174 1.52934 6.47174H13.0588C13.5136 6.47174 13.8823 6.84044 13.8823 7.29527C13.8823 7.75009 13.5136 8.1188 13.0588 8.1188H1.52934C1.07452 8.1188 0.705811 7.75009 0.705811 7.29527Z"/>
<path fill-rule="evenodd" clip-rule="evenodd" d="M6.71172 0.948237C7.03333 0.626629 7.55476 0.626629 7.87637 0.948237L13.6411 6.71294C13.9627 7.03455 13.9627 7.55598 13.6411 7.87759L7.87637 13.6423C7.55476 13.9639 7.03333 13.9639 6.71172 13.6423C6.39011 13.3207 6.39011 12.7993 6.71172 12.4777L11.8941 7.29527L6.71172 2.11288C6.39011 1.79128 6.39011 1.26985 6.71172 0.948237Z"/>
</svg>
