<svg width="24" height="24" viewBox="0 0 24 24" fill="none" xmlns="http://www.w3.org/2000/svg">
<path d="M1.2 1.20312H22.8C23.1183 1.20313 23.4235 1.32955 23.6485 1.5546C23.8736 1.77964 24 2.08487 24 2.40312V21.6031C24 21.9214 23.8736 22.2266 23.6485 22.4517C23.4235 22.6767 23.1183 22.8031 22.8 22.8031H1.2C0.88174 22.8031 0.576515 22.6767 0.351472 22.4517C0.126428 22.2266 0 21.9214 0 21.6031V2.40312C0 2.08487 0.126428 1.77964 0.351472 1.5546C0.576515 1.32955 0.88174 1.20313 1.2 1.20312ZM12.072 11.6227L4.3776 5.08872L2.8236 6.91752L12.0876 14.7835L21.1848 6.91152L19.6152 5.09592L12.072 11.6227Z" fill="#007A32"/>
</svg>
