<svg width="17" height="16" viewBox="0 0 17 16" fill="none" xmlns="http://www.w3.org/2000/svg">
<g clip-path="url(#clip0_1252_10187)">
<path d="M1.3 0.800781H15.7C15.9122 0.800781 16.1157 0.885067 16.2657 1.0351C16.4157 1.18512 16.5 1.38861 16.5 1.60078V14.4008C16.5 14.613 16.4157 14.8164 16.2657 14.9665C16.1157 15.1165 15.9122 15.2008 15.7 15.2008H1.3C1.08783 15.2008 0.884344 15.1165 0.734315 14.9665C0.584285 14.8164 0.5 14.613 0.5 14.4008V1.60078C0.5 1.38861 0.584285 1.18512 0.734315 1.0351C0.884344 0.885067 1.08783 0.800781 1.3 0.800781ZM8.548 7.74718L3.4184 3.39118L2.3824 4.61038L8.5584 9.85438L14.6232 4.60638L13.5768 3.39598L8.548 7.74718Z" fill="#66B821"/>
</g>
<defs>
<clipPath id="clip0_1252_10187">
<rect width="16" height="16" fill="white" transform="translate(0.5)"/>
</clipPath>
</defs>
</svg>
