<svg width="24" height="24" viewBox="0 0 24 24" fill="none" xmlns="http://www.w3.org/2000/svg">
<path d="M19.178 16.9689L12.1492 23.9977L5.12036 16.9689C3.73021 15.5787 2.78351 13.8076 2.39998 11.8794C2.01644 9.95116 2.2133 7.95253 2.96565 6.13621C3.718 4.31988 4.99206 2.76745 6.62671 1.67521C8.26136 0.582978 10.1832 0 12.1492 0C14.1151 0 16.037 0.582978 17.6716 1.67521C19.3063 2.76745 20.5803 4.31988 21.3327 6.13621C22.085 7.95253 22.2819 9.95116 21.8984 11.8794C21.5148 13.8076 20.5681 15.5787 19.178 16.9689ZM12.1492 12.149C12.735 12.149 13.2969 11.9163 13.7111 11.502C14.1254 11.0878 14.3581 10.5259 14.3581 9.94009C14.3581 9.35425 14.1254 8.7924 13.7111 8.37814C13.2969 7.96389 12.735 7.73116 12.1492 7.73116C11.5633 7.73116 11.0015 7.96389 10.5872 8.37814C10.173 8.7924 9.94024 9.35425 9.94024 9.94009C9.94024 10.5259 10.173 11.0878 10.5872 11.502C11.0015 11.9163 11.5633 12.149 12.1492 12.149Z" fill="#007A32"/>
</svg>
