<svg width="16" height="16" viewBox="0 0 16 16" fill="none" xmlns="http://www.w3.org/2000/svg">
<path d="M12.7853 11.3126L8.09944 15.9985L3.41357 11.3126C2.48681 10.3858 1.85567 9.20504 1.59999 7.91957C1.3443 6.63411 1.47553 5.30169 1.9771 4.0908C2.47867 2.87992 3.32804 1.84497 4.41781 1.11681C5.50757 0.388652 6.78879 0 8.09944 0C9.41009 0 10.6913 0.388652 11.7811 1.11681C12.8708 1.84497 13.7202 2.87992 14.2218 4.0908C14.7234 5.30169 14.8546 6.63411 14.5989 7.91957C14.3432 9.20504 13.7121 10.3858 12.7853 11.3126ZM8.09944 8.09934C8.49001 8.09934 8.86457 7.94419 9.14074 7.66802C9.41691 7.39185 9.57206 7.01729 9.57206 6.62673C9.57206 6.23616 9.41691 5.8616 9.14074 5.58543C8.86457 5.30926 8.49001 5.15411 8.09944 5.15411C7.70888 5.15411 7.33431 5.30926 7.05814 5.58543C6.78197 5.8616 6.62682 6.23616 6.62682 6.62673C6.62682 7.01729 6.78197 7.39185 7.05814 7.66802C7.33431 7.94419 7.70888 8.09934 8.09944 8.09934Z" fill="#66B821"/>
</svg>
