<svg width="17" height="16" viewBox="0 0 17 16" xmlns="http://www.w3.org/2000/svg">
<g clip-path="url(#clip0_1252_10178)">
<path d="M16.5 11.9289V15.072C16.5001 15.297 16.4148 15.5138 16.2614 15.6784C16.108 15.843 15.8978 15.9434 15.6733 15.9591C15.2849 15.9858 14.9676 16 14.7222 16C6.86711 16 0.5 9.63289 0.5 1.77778C0.5 1.53244 0.513333 1.21511 0.540889 0.826667C0.556642 0.602172 0.656961 0.39201 0.821603 0.238586C0.986245 0.0851616 1.20295 -0.000101718 1.428 2.28071e-07H4.57111C4.68137 -0.000111408 4.78773 0.0407636 4.86954 0.114685C4.95134 0.188606 5.00275 0.290296 5.01378 0.4C5.03422 0.604445 5.05289 0.767111 5.07067 0.890667C5.24732 2.12349 5.60934 3.32252 6.14444 4.44711C6.22889 4.62489 6.17378 4.83733 6.01378 4.95111L4.09556 6.32178C5.2684 9.05462 7.44627 11.2325 10.1791 12.4053L11.548 10.4907C11.604 10.4124 11.6856 10.3563 11.7787 10.3321C11.8717 10.3079 11.9704 10.3172 12.0573 10.3582C13.1818 10.8923 14.3805 11.2534 15.6129 11.4293C15.7364 11.4471 15.8991 11.4667 16.1018 11.4862C16.2113 11.4975 16.3128 11.549 16.3865 11.6307C16.4603 11.7125 16.5001 11.8188 16.5 11.9289Z" />
</g>
<defs>
<clipPath id="clip0_1252_10178">
<rect width="16" height="16" transform="translate(0.5)"/>
</clipPath>
</defs>
</svg>
