<svg width="18" height="18" viewBox="0 0 18 18" fill="none" xmlns="http://www.w3.org/2000/svg">
<g clip-path="url(#clip0_1221_8381)">
<path d="M17.7221 1.78816C17.5021 1.51927 17.1728 1.37109 16.7948 1.37109C16.589 1.37109 16.3714 1.41449 16.1475 1.49991L0.910791 7.31618C0.102201 7.62476 -0.00670084 8.08783 0.000302908 8.33654C0.00730666 8.5851 0.142301 9.04131 0.967096 9.3036C0.97204 9.30525 0.976984 9.30663 0.981927 9.30814L3.11876 9.91952L13.5255 4.60285C13.7848 4.47019 14.1026 4.57318 14.2351 4.8326C14.3392 5.03639 14.2974 5.27589 14.1491 5.43355L14.1495 5.43396L8.36334 11.582L8.19827 12.2509L10.2645 13.9148L13.1278 16.2204C13.1303 16.2224 13.1328 16.2244 13.1354 16.2263C13.4504 16.4708 13.7945 16.5999 14.1306 16.6C14.7873 16.6 15.3101 16.114 15.4624 15.362L17.9589 3.03483C18.059 2.54017 17.975 2.09729 17.7221 1.78816Z" fill="white"/>
<path d="M7.37265 11.1952C7.39366 11.1099 7.43596 11.0286 7.50037 10.9601L11.2971 6.92578L4.25171 10.5252L5.85146 15.1003C5.94264 15.3609 6.07832 15.5829 6.24614 15.7566L7.37238 11.1951L7.37265 11.1952Z" fill="white"/>
<path d="M7.22803 16.1782C7.60829 16.1751 7.98196 16.0147 8.30936 15.7132L9.47981 14.6355L7.9192 13.3789L7.22803 16.1782Z" fill="white"/>
</g>
<g clip-path="url(#clip1_1221_8381)">
<path d="M17.7221 1.78816C17.5021 1.51927 17.1728 1.37109 16.7948 1.37109C16.589 1.37109 16.3714 1.41449 16.1475 1.49991L0.910791 7.31618C0.102201 7.62476 -0.00670084 8.08783 0.000302908 8.33654C0.00730666 8.5851 0.142301 9.04131 0.967096 9.3036C0.97204 9.30525 0.976984 9.30663 0.981927 9.30814L3.11876 9.91952L13.5255 4.60285C13.7848 4.47019 14.1026 4.57318 14.2351 4.8326C14.3392 5.03639 14.2974 5.27589 14.1491 5.43355L14.1495 5.43396L8.36334 11.582L8.19827 12.2509L10.2645 13.9148L13.1278 16.2204C13.1303 16.2224 13.1328 16.2244 13.1354 16.2263C13.4504 16.4708 13.7945 16.5999 14.1306 16.6C14.7873 16.6 15.3101 16.114 15.4624 15.362L17.9589 3.03483C18.059 2.54017 17.975 2.09729 17.7221 1.78816Z" fill="white"/>
<path d="M7.37265 11.1952C7.39366 11.1099 7.43596 11.0286 7.50037 10.9601L11.2971 6.92578L4.25171 10.5252L5.85146 15.1003C5.94264 15.3609 6.07832 15.5829 6.24614 15.7566L7.37238 11.1951L7.37265 11.1952Z" fill="white"/>
<path d="M7.22803 16.1782C7.60829 16.1751 7.98196 16.0147 8.30936 15.7132L9.47981 14.6355L7.9192 13.3789L7.22803 16.1782Z" fill="white"/>
</g>
<defs>
<clipPath id="clip0_1221_8381">
<rect width="18" height="18" fill="white"/>
</clipPath>
<clipPath id="clip1_1221_8381">
<rect width="18" height="18" fill="white"/>
</clipPath>
</defs>
</svg>
