<svg width="18" height="18" viewBox="0 0 18 18" fill="none" xmlns="http://www.w3.org/2000/svg">
<path fill-rule="evenodd" clip-rule="evenodd" d="M15.4916 10.4769C16.0886 11.0599 16.7188 11.6084 17.2544 12.2501C17.4909 12.5353 17.7149 12.8296 17.8862 13.1605C18.129 13.631 17.9091 14.1487 17.4873 14.1768L14.865 14.1756C14.1886 14.2317 13.6491 13.9594 13.1954 13.497C12.8324 13.1272 12.4962 12.7336 12.1471 12.3513C12.0039 12.1951 11.8541 12.0481 11.6752 11.9319C11.3172 11.6995 11.0065 11.7706 10.8019 12.144C10.5935 12.5237 10.5463 12.9442 10.5258 13.3674C10.4977 13.9849 10.3111 14.1473 9.69083 14.1755C8.36525 14.238 7.10722 14.0375 5.93854 13.3688C4.9082 12.7793 4.10921 11.9471 3.41377 11.0049C2.05975 9.1703 1.02284 7.15438 0.0909061 5.08198C-0.118865 4.61506 0.0345452 4.36442 0.549718 4.35555C1.40519 4.33893 2.26053 4.34012 3.11701 4.35437C3.46469 4.35946 3.69487 4.55888 3.82912 4.88734C4.29195 6.02538 4.85828 7.10813 5.56915 8.11174C5.75846 8.37894 5.95149 8.64614 6.22638 8.8342C6.53048 9.04244 6.76201 8.97342 6.90507 8.63466C6.99586 8.41986 7.0356 8.18851 7.05606 7.95845C7.12384 7.16697 7.13277 6.37686 7.01389 5.58816C6.94091 5.09593 6.66366 4.77728 6.1725 4.68414C5.92186 4.63665 5.95918 4.54338 6.08054 4.40032C6.29131 4.15359 6.48955 4 6.88473 4H9.84832C10.3149 4.09208 10.4185 4.30168 10.4824 4.77113L10.4849 8.06307C10.4798 8.24481 10.5757 8.78411 10.903 8.9044C11.165 8.99004 11.3377 8.78044 11.4949 8.61432C12.2045 7.86122 12.7109 6.97122 13.1633 6.04963C13.3641 5.6444 13.5367 5.22356 13.704 4.80307C13.828 4.49104 14.0225 4.33751 14.374 4.34432L17.2263 4.34686C17.3108 4.34686 17.3964 4.3481 17.4783 4.36212C17.959 4.44403 18.0907 4.65078 17.9422 5.12012C17.7083 5.85648 17.2532 6.47012 16.8083 7.0866C16.3326 7.74478 15.8239 8.38042 15.3522 9.0425C14.9188 9.64709 14.9532 9.95184 15.4916 10.4769Z" fill="white"/>
</svg>
